<?xml version="1.0" encoding="UTF-8" standalone="no"?>
<!-- Created with Inkscape (http://www.inkscape.org/) -->

<svg
   xmlns:dc="http://purl.org/dc/elements/1.1/"
   xmlns:cc="http://creativecommons.org/ns#"
   xmlns:rdf="http://www.w3.org/1999/02/22-rdf-syntax-ns#"
   xmlns:svg="http://www.w3.org/2000/svg"
   xmlns="http://www.w3.org/2000/svg"
   xmlns:sodipodi="http://sodipodi.sourceforge.net/DTD/sodipodi-0.dtd"
   xmlns:inkscape="http://www.inkscape.org/namespaces/inkscape"
   width="297mm"
   height="210mm"
   viewBox="0 0 297 210"
   version="1.1"
   id="SVGRoot"
   inkscape:version="0.92.3 (2405546, 2018-03-11)"
   sodipodi:docname="SlideBackground.svg">
  <sodipodi:namedview
     id="base"
     pagecolor="#ffffff"
     bordercolor="#666666"
     borderopacity="1.0"
     inkscape:pageopacity="0.0"
     inkscape:pageshadow="2"
     inkscape:zoom="1.0587813"
     inkscape:cx="559.99996"
     inkscape:cy="395.71426"
     inkscape:document-units="mm"
     inkscape:current-layer="layer1"
     showgrid="false"
     inkscape:window-width="1867"
     inkscape:window-height="1025"
     inkscape:window-x="53"
     inkscape:window-y="27"
     inkscape:window-maximized="1" />
  <defs
     id="defs421" />
  <metadata
     id="metadata424">
    <rdf:RDF>
      <cc:Work
         rdf:about="">
        <dc:format>image/svg+xml</dc:format>
        <dc:type
           rdf:resource="http://purl.org/dc/dcmitype/StillImage" />
        <dc:title></dc:title>
      </cc:Work>
    </rdf:RDF>
  </metadata>
  <g
     id="layer1"
     inkscape:groupmode="layer"
     inkscape:label="Layer 1">
    <rect
       style="fill:#242930;stroke-width:0.26458332;fill-opacity:1"
       id="rect448"
       width="297.84521"
       height="210.91072"
       x="-0.75595242"
       y="-0.15475707" />
    <g
       id="g5164"
       transform="matrix(0.68397327,0,0,0.68397327,-29.88675,68.253972)">
      <g
         transform="matrix(0.26983914,0,0,0.26983914,30.541814,161.65667)"
         id="g408">
        <path
           d="M 147.84589,160.18995 V 145.5871 c -1.65533,0.23649 -3.19332,0.35554 -3.99171,0.35554 -2.83767,0 -4.37384,-0.70942 -8.0099,-2.57287 7.06399,-7.30048 10.46362,-16.34521 10.46362,-27.87384 0,-25.983994 -19.6275,-45.375002 -45.96522,-45.375002 -26.099402,0 -46.349285,19.6275 -46.349285,44.902022 0,25.03617 20.809894,45.04773 47.058705,45.04773 8.81011,0 17.97217,-2.60124 24.09213,-6.82756 7.4197,5.0549 12.11895,7.06399 19.6275,7.06399 0.47298,0 2.1283,0 3.07416,-0.11744 z m -36.32835,-17.88326 c -3.66631,1.65533 -6.11996,2.24559 -10.46544,2.24559 -10.936547,0 -19.182941,-4.02008 -25.775882,-12.71103 3.783637,-0.70941 5.527876,-0.94591 8.365547,-0.94591 9.519583,0 17.854895,3.42981 27.875775,11.41135 z m 18.56243,-26.57421 c 0,7.89262 -2.33451,13.98046 -7.06399,18.79892 -10.58278,-10.46361 -25.39187,-16.78982 -39.254998,-16.78982 -5.17411,0 -9.400375,0.47298 -13.420504,1.5078 -0.236492,-2.09801 -0.236492,-3.04392 -0.236492,-4.10898 0,-16.818199 12.947521,-29.498975 30.002154,-29.498975 17.17572,0 29.97377,12.79806 29.97377,30.091055 z"
           style="fill:#3cc6b9;fill-opacity:1;fill-rule:nonzero;stroke:none;stroke-width:1.89180636"
           id="path178"
           inkscape:connector-curvature="0" />
        <path
           d="m 142.55456,134.49541 h -19.44968 c -7.24186,7.3894 -13.53965,10.22713 -22.13981,10.22713 -16.436008,0 -29.973787,-13.42044 -29.973787,-29.64837 0,-16.345214 12.561576,-29.26436 29.618137,-29.26436 10.40489,0 17.41027,3.282286 23.46974,10.938414 h 18.4754 C 134.72055,79.928158 118.6402,70.2913 100.25565,70.2913 c -25.274539,0 -45.936857,20.100474 -45.936857,44.66559 0,25.03615 20.898755,45.28416 47.030287,45.28416 18.23703,0 34.2001,-9.87335 41.20548,-25.74564 z"
           style="fill:#168a82;fill-opacity:1;fill-rule:nonzero;stroke:none;stroke-width:1.89180636"
           id="path180"
           inkscape:connector-curvature="0" />
      </g>
      <g
         transform="matrix(0.35277777,0,0,0.34315929,59.605087,67.069495)"
         id="g182"
         style="display:inline">
        <path
           inkscape:connector-curvature="0"
           id="path184"
           style="fill:#ffffff;fill-opacity:1;fill-rule:nonzero;stroke:#ffffff;stroke-width:0.72714698;stroke-linecap:butt;stroke-linejoin:miter;stroke-miterlimit:4;stroke-dasharray:none;stroke-opacity:1"
           d="m 42.938,392.767 2.546,7.711 2.11,-10.361 h 1.484 l -2.656,11.71 h -1.656 l -2.532,-7.453 -2.5,7.453 h -1.687 l -2.844,-11.71 h 1.485 l 2.281,10.361 2.578,-7.711 z" />
      </g>
      <g
         transform="matrix(0.35277777,0,0,0.34315929,59.605087,67.069495)"
         id="g186"
         style="display:inline">
        <path
           inkscape:connector-curvature="0"
           id="path188"
           style="fill:#ffffff;fill-opacity:1;fill-rule:nonzero;stroke:#ffffff;stroke-width:0.72714698;stroke-linecap:butt;stroke-linejoin:miter;stroke-miterlimit:4;stroke-dasharray:none;stroke-opacity:1"
           d="m 58.383,392.767 2.547,7.711 2.109,-10.361 h 1.484 l -2.656,11.71 h -1.656 l -2.531,-7.453 -2.5,7.453 h -1.688 l -2.844,-11.71 h 1.485 l 2.281,10.361 2.578,-7.711 z" />
      </g>
      <g
         transform="matrix(0.35277777,0,0,0.34315929,59.605087,67.069495)"
         id="g190"
         style="display:inline">
        <path
           inkscape:connector-curvature="0"
           id="path192"
           style="fill:#ffffff;fill-opacity:1;fill-rule:nonzero;stroke:#ffffff;stroke-width:0.72714698;stroke-linecap:butt;stroke-linejoin:miter;stroke-miterlimit:4;stroke-dasharray:none;stroke-opacity:1"
           d="m 73.832,392.767 2.547,7.711 2.109,-10.361 h 1.485 l -2.657,11.71 H 75.66 l -2.531,-7.453 -2.5,7.453 h -1.688 l -2.843,-11.71 h 1.484 l 2.281,10.361 2.578,-7.711 z" />
      </g>
      <g
         transform="matrix(0.35277777,0,0,0.34315929,59.605087,67.069495)"
         id="g194"
         style="display:inline">
        <path
           inkscape:connector-curvature="0"
           id="path196"
           style="fill:#ffffff;fill-opacity:1;fill-rule:nonzero;stroke:#ffffff;stroke-width:0.72714698;stroke-linecap:butt;stroke-linejoin:miter;stroke-miterlimit:4;stroke-dasharray:none;stroke-opacity:1"
           d="m 82.496,399.434 h 1.906 v 2.393 h -1.906 z" />
      </g>
      <g
         transform="matrix(0.35277777,0,0,0.34315929,59.605087,67.069495)"
         id="g198"
         style="display:inline">
        <path
           inkscape:connector-curvature="0"
           id="path200"
           style="fill:#ffffff;fill-opacity:1;fill-rule:nonzero;stroke:#ffffff;stroke-width:0.72714698;stroke-linecap:butt;stroke-linejoin:miter;stroke-miterlimit:4;stroke-dasharray:none;stroke-opacity:1"
           d="m 92.867,400.686 c 0.801,0 1.41,-0.112 1.828,-0.337 l -1.468,-2.024 0.843,-0.674 1.453,2.04 c 0.407,-0.502 0.696,-1.197 0.875,-2.089 0.188,-0.899 0.282,-2.044 0.282,-3.437 0,-2.353 -0.278,-4.036 -0.828,-5.044 -0.555,-1.004 -1.547,-1.51 -2.985,-1.51 -1.429,0 -2.418,0.506 -2.969,1.51 -0.554,1.008 -0.828,2.691 -0.828,5.044 0,2.345 0.27,4.024 0.813,5.028 0.551,0.995 1.547,1.493 2.984,1.493 z m 4.235,3.036 -1.61,-2.232 c -0.699,0.353 -1.574,0.53 -2.625,0.53 -0.844,0 -1.578,-0.121 -2.203,-0.354 -0.617,-0.245 -1.121,-0.578 -1.516,-0.996 -0.398,-0.425 -0.714,-0.971 -0.953,-1.638 -0.242,-0.675 -0.406,-1.398 -0.5,-2.169 -0.093,-0.779 -0.14,-1.69 -0.14,-2.73 0,-1.293 0.082,-2.402 0.25,-3.325 0.164,-0.932 0.445,-1.743 0.843,-2.442 0.395,-0.695 0.942,-1.213 1.641,-1.558 0.695,-0.353 1.555,-0.53 2.578,-0.53 1.02,0 1.879,0.177 2.578,0.53 0.696,0.345 1.243,0.863 1.641,1.558 0.394,0.699 0.676,1.51 0.844,2.442 0.175,0.923 0.265,2.032 0.265,3.325 0,1.67 -0.14,3.064 -0.422,4.176 -0.273,1.104 -0.734,1.96 -1.39,2.57 l 1.562,2.185 z" />
      </g>
      <g
         transform="matrix(0.35277777,0,0,0.34315929,59.605087,67.069495)"
         id="g202"
         style="display:inline">
        <path
           inkscape:connector-curvature="0"
           id="path204"
           style="fill:#ffffff;fill-opacity:1;fill-rule:nonzero;stroke:#ffffff;stroke-width:0.72714698;stroke-linecap:butt;stroke-linejoin:miter;stroke-miterlimit:4;stroke-dasharray:none;stroke-opacity:1"
           d="m 102.52,394.245 c 0,2.185 0.382,3.807 1.156,4.867 0.781,1.052 1.82,1.574 3.125,1.574 1.101,0 2.195,-0.257 3.281,-0.771 l 0.484,1.157 c -1.23,0.578 -2.515,0.867 -3.859,0.867 -0.824,0 -1.574,-0.148 -2.25,-0.449 -0.68,-0.31 -1.277,-0.771 -1.797,-1.382 -0.523,-0.618 -0.93,-1.429 -1.219,-2.425 -0.293,-1.004 -0.437,-2.161 -0.437,-3.47 0,-2.771 0.445,-4.771 1.344,-5.991 0.894,-1.229 2.3,-1.848 4.218,-1.848 1.239,0 2.461,0.298 3.672,0.884 v 2.875 h -1.297 v -2.056 c -0.679,-0.297 -1.429,-0.45 -2.25,-0.45 -0.718,0 -1.32,0.097 -1.796,0.289 -0.481,0.185 -0.915,0.514 -1.297,0.996 -0.375,0.474 -0.653,1.153 -0.828,2.04 -0.168,0.88 -0.25,1.976 -0.25,3.293 z" />
      </g>
      <g
         transform="matrix(0.35277777,0,0,0.34315929,59.605087,67.069495)"
         id="g206"
         style="display:inline">
        <path
           inkscape:connector-curvature="0"
           id="path208"
           style="fill:#ffffff;fill-opacity:1;fill-rule:nonzero;stroke:#ffffff;stroke-width:0.72714698;stroke-linecap:butt;stroke-linejoin:miter;stroke-miterlimit:4;stroke-dasharray:none;stroke-opacity:1"
           d="m 120.949,400.381 c -0.75,1.04 -1.898,1.558 -3.437,1.558 -1.543,0 -2.688,-0.518 -3.438,-1.558 -0.75,-1.036 -1.125,-2.514 -1.125,-4.433 0,-2 0.363,-3.502 1.094,-4.498 0.738,-1.004 1.895,-1.51 3.469,-1.51 1.57,0 2.722,0.506 3.453,1.51 0.738,0.996 1.109,2.498 1.109,4.498 0,1.919 -0.375,3.397 -1.125,4.433 z m -2.234,-8.947 c -0.344,-0.16 -0.746,-0.241 -1.203,-0.241 -0.461,0 -0.867,0.081 -1.219,0.241 -0.344,0.153 -0.633,0.362 -0.859,0.627 -0.231,0.269 -0.418,0.606 -0.563,1.012 -0.148,0.409 -0.25,0.847 -0.312,1.317 -0.063,0.462 -0.094,0.98 -0.094,1.558 0,0.739 0.047,1.389 0.14,1.943 0.102,0.547 0.266,1.041 0.485,1.478 0.226,0.442 0.547,0.771 0.953,0.996 0.406,0.217 0.895,0.321 1.469,0.321 0.582,0 1.07,-0.104 1.468,-0.321 0.407,-0.225 0.719,-0.554 0.938,-0.996 0.227,-0.437 0.391,-0.931 0.484,-1.478 0.102,-0.554 0.157,-1.204 0.157,-1.943 0,-0.578 -0.032,-1.096 -0.094,-1.558 -0.063,-0.47 -0.168,-0.908 -0.313,-1.317 -0.148,-0.406 -0.336,-0.743 -0.562,-1.012 -0.231,-0.265 -0.524,-0.474 -0.875,-0.627 z" />
      </g>
      <g
         transform="matrix(0.35277777,0,0,0.34315929,59.605087,67.069495)"
         id="g210"
         style="display:inline">
        <path
           inkscape:connector-curvature="0"
           id="path212"
           style="fill:#ffffff;fill-opacity:1;fill-rule:nonzero;stroke:#ffffff;stroke-width:0.72714698;stroke-linecap:butt;stroke-linejoin:miter;stroke-miterlimit:4;stroke-dasharray:none;stroke-opacity:1"
           d="m 132.641,400.381 c -0.75,1.04 -1.899,1.558 -3.438,1.558 -1.543,0 -2.687,-0.518 -3.437,-1.558 -0.75,-1.036 -1.125,-2.514 -1.125,-4.433 0,-2 0.363,-3.502 1.093,-4.498 0.739,-1.004 1.895,-1.51 3.469,-1.51 1.57,0 2.723,0.506 3.453,1.51 0.739,0.996 1.11,2.498 1.11,4.498 0,1.919 -0.375,3.397 -1.125,4.433 z m -2.235,-8.947 c -0.344,-0.16 -0.746,-0.241 -1.203,-0.241 -0.461,0 -0.867,0.081 -1.219,0.241 -0.343,0.153 -0.632,0.362 -0.859,0.627 -0.23,0.269 -0.418,0.606 -0.563,1.012 -0.148,0.409 -0.25,0.847 -0.312,1.317 -0.062,0.462 -0.094,0.98 -0.094,1.558 0,0.739 0.047,1.389 0.141,1.943 0.101,0.547 0.265,1.041 0.484,1.478 0.227,0.442 0.547,0.771 0.953,0.996 0.407,0.217 0.895,0.321 1.469,0.321 0.582,0 1.07,-0.104 1.469,-0.321 0.406,-0.225 0.719,-0.554 0.937,-0.996 0.227,-0.437 0.391,-0.931 0.485,-1.478 0.101,-0.554 0.156,-1.204 0.156,-1.943 0,-0.578 -0.031,-1.096 -0.094,-1.558 -0.062,-0.47 -0.168,-0.908 -0.312,-1.317 -0.149,-0.406 -0.336,-0.743 -0.563,-1.012 -0.23,-0.265 -0.523,-0.474 -0.875,-0.627 z" />
      </g>
      <g
         transform="matrix(0.35277777,0,0,0.34315929,59.605087,67.069495)"
         id="g214"
         style="display:inline">
        <path
           inkscape:connector-curvature="0"
           id="path216"
           style="fill:#ffffff;fill-opacity:1;fill-rule:nonzero;stroke:#ffffff;stroke-width:0.72714698;stroke-linecap:butt;stroke-linejoin:miter;stroke-miterlimit:4;stroke-dasharray:none;stroke-opacity:1"
           d="m 138.242,401.313 v 5.14 h -1.531 v -16.336 h 1.25 l 0.141,0.819 c 1.019,-0.662 2.144,-0.996 3.375,-0.996 1.238,0 2.211,0.494 2.921,1.478 0.707,0.988 1.063,2.502 1.063,4.546 0,2.132 -0.359,3.662 -1.078,4.594 -0.719,0.924 -1.809,1.381 -3.266,1.381 -1.074,0 -2.031,-0.208 -2.875,-0.626 z m 0,-9.092 v 7.984 c 0.696,0.321 1.469,0.481 2.313,0.481 h 0.343 c 1.071,0 1.848,-0.357 2.329,-1.076 0.476,-0.727 0.718,-1.931 0.718,-3.614 0,-1.646 -0.215,-2.859 -0.64,-3.63 -0.43,-0.779 -1.106,-1.173 -2.032,-1.173 -0.843,0 -1.855,0.346 -3.031,1.028 z" />
      </g>
      <g
         transform="matrix(0.35277777,0,0,0.34315929,59.605087,67.069495)"
         id="g218"
         style="display:inline">
        <path
           inkscape:connector-curvature="0"
           id="path220"
           style="fill:#ffffff;fill-opacity:1;fill-rule:nonzero;stroke:#ffffff;stroke-width:0.72714698;stroke-linecap:butt;stroke-linejoin:miter;stroke-miterlimit:4;stroke-dasharray:none;stroke-opacity:1"
           d="m 152.777,391.193 c -1,0 -1.765,0.35 -2.297,1.044 -0.523,0.687 -0.835,1.667 -0.937,2.94 h 6.031 v -0.594 c 0,-1.029 -0.258,-1.848 -0.765,-2.458 -0.5,-0.619 -1.18,-0.932 -2.032,-0.932 z m 0.203,9.493 c 1.219,0 2.329,-0.313 3.329,-0.947 l 0.468,1.204 c -0.543,0.334 -1.148,0.587 -1.812,0.755 -0.668,0.161 -1.305,0.241 -1.906,0.241 -1.594,0 -2.836,-0.482 -3.719,-1.445 -0.875,-0.964 -1.313,-2.482 -1.313,-4.562 0,-1.992 0.426,-3.486 1.282,-4.482 0.851,-1.004 2.003,-1.51 3.453,-1.51 1.312,0 2.343,0.43 3.093,1.285 0.75,0.86 1.125,2 1.125,3.422 0,0.333 -0.031,0.867 -0.093,1.606 h -7.344 c 0.008,0.707 0.082,1.329 0.219,1.863 0.133,0.538 0.304,0.964 0.515,1.285 0.207,0.322 0.461,0.587 0.766,0.787 0.301,0.193 0.602,0.33 0.906,0.402 0.313,0.064 0.656,0.096 1.031,0.096 z" />
      </g>
      <g
         transform="matrix(0.35277777,0,0,0.34315929,59.605087,67.069495)"
         id="g222"
         style="display:inline">
        <path
           inkscape:connector-curvature="0"
           id="path224"
           style="fill:#ffffff;fill-opacity:1;fill-rule:nonzero;stroke:#ffffff;stroke-width:0.72714698;stroke-linecap:butt;stroke-linejoin:miter;stroke-miterlimit:4;stroke-dasharray:none;stroke-opacity:1"
           d="m 161.449,391.145 c 0.457,-0.321 1.047,-0.594 1.766,-0.819 0.719,-0.233 1.379,-0.362 1.984,-0.386 v 1.269 c -0.687,0 -1.387,0.109 -2.094,0.322 -0.71,0.216 -1.261,0.461 -1.656,0.738 v 9.558 h -1.515 v -11.71 h 1.453 z" />
      </g>
      <g
         transform="matrix(0.35277777,0,0,0.34315929,59.605087,67.069495)"
         id="g226"
         style="display:inline">
        <path
           inkscape:connector-curvature="0"
           id="path228"
           style="fill:#ffffff;fill-opacity:1;fill-rule:nonzero;stroke:#ffffff;stroke-width:0.72714698;stroke-linecap:butt;stroke-linejoin:miter;stroke-miterlimit:4;stroke-dasharray:none;stroke-opacity:1"
           d="m 168.664,398.518 c 0,1.478 0.852,2.217 2.563,2.217 0.507,0 1.023,-0.073 1.546,-0.225 0.532,-0.149 0.969,-0.338 1.313,-0.562 v -3.743 h -0.672 c -0.375,0 -0.726,0.012 -1.047,0.032 -0.312,0.024 -0.668,0.06 -1.062,0.112 -0.387,0.045 -0.727,0.121 -1.016,0.225 -0.293,0.109 -0.57,0.249 -0.828,0.418 -0.25,0.161 -0.449,0.377 -0.594,0.642 -0.137,0.257 -0.203,0.555 -0.203,0.884 z m -0.75,-7.887 c 1.406,-0.458 2.625,-0.691 3.656,-0.691 0.594,0 1.118,0.089 1.578,0.257 0.469,0.161 0.883,0.414 1.25,0.755 0.375,0.346 0.661,0.815 0.86,1.414 0.207,0.602 0.312,1.313 0.312,2.136 v 7.325 h -1.093 l -0.235,-0.787 c -0.293,0.237 -0.758,0.446 -1.39,0.626 -0.625,0.181 -1.247,0.273 -1.86,0.273 -1.137,0 -2.047,-0.293 -2.734,-0.883 -0.68,-0.598 -1.016,-1.466 -1.016,-2.602 0,-0.362 0.055,-0.699 0.172,-1.012 0.113,-0.322 0.313,-0.627 0.594,-0.916 0.281,-0.289 0.633,-0.538 1.062,-0.755 0.438,-0.213 0.989,-0.377 1.657,-0.498 0.675,-0.116 1.445,-0.176 2.312,-0.176 h 1.047 v -0.386 c -0.012,-1.293 -0.242,-2.205 -0.688,-2.731 -0.449,-0.522 -1.078,-0.787 -1.89,-0.787 -0.125,0 -0.258,0.008 -0.391,0.016 -0.137,0.012 -0.258,0.024 -0.359,0.032 -0.106,0.012 -0.246,0.041 -0.422,0.081 -0.18,0.032 -0.309,0.056 -0.391,0.064 -0.086,0.012 -0.234,0.044 -0.453,0.096 -0.211,0.057 -0.344,0.093 -0.406,0.113 -0.055,0.012 -0.203,0.048 -0.453,0.112 -0.25,0.064 -0.391,0.097 -0.422,0.097 z" />
      </g>
      <g
         transform="matrix(0.35277777,0,0,0.34315929,59.605087,67.069495)"
         id="g230"
         style="display:inline">
        <path
           inkscape:connector-curvature="0"
           id="path232"
           style="fill:#ffffff;fill-opacity:1;fill-rule:nonzero;stroke:#ffffff;stroke-width:0.72714698;stroke-linecap:butt;stroke-linejoin:miter;stroke-miterlimit:4;stroke-dasharray:none;stroke-opacity:1"
           d="m 182.844,401.939 c -0.637,-0.012 -1.156,-0.112 -1.563,-0.305 -0.406,-0.193 -0.726,-0.49 -0.953,-0.899 -0.23,-0.406 -0.39,-0.884 -0.484,-1.43 -0.086,-0.554 -0.125,-1.253 -0.125,-2.088 v -6.024 h -1.813 v -1.076 h 1.86 l 0.296,-3.341 h 1.172 v 3.341 h 3.657 v 1.076 h -3.657 v 6.04 c 0,0.763 0.039,1.381 0.125,1.863 0.082,0.474 0.219,0.819 0.407,1.044 0.195,0.225 0.398,0.378 0.609,0.45 0.219,0.064 0.508,0.096 0.875,0.096 0.812,0 1.406,-0.024 1.781,-0.08 l 0.063,1.221 c -0.637,0.072 -1.387,0.112 -2.25,0.112 z" />
      </g>
      <g
         transform="matrix(0.35277777,0,0,0.34315929,59.605087,67.069495)"
         id="g234"
         style="display:inline">
        <path
           inkscape:connector-curvature="0"
           id="path236"
           style="fill:#ffffff;fill-opacity:1;fill-rule:nonzero;stroke:#ffffff;stroke-width:0.72714698;stroke-linecap:butt;stroke-linejoin:miter;stroke-miterlimit:4;stroke-dasharray:none;stroke-opacity:1"
           d="m 189.457,386.808 c 0,-0.329 0.102,-0.594 0.313,-0.787 0.207,-0.201 0.46,-0.305 0.765,-0.305 0.332,0 0.594,0.092 0.781,0.273 0.196,0.185 0.297,0.45 0.297,0.803 0,0.345 -0.101,0.606 -0.297,0.787 -0.187,0.185 -0.449,0.273 -0.781,0.273 -0.312,0 -0.574,-0.088 -0.781,-0.273 -0.199,-0.193 -0.297,-0.45 -0.297,-0.771 z m -1.953,4.385 v -1.076 h 3.797 v 10.634 h 2.281 v 1.076 h -6.078 v -1.076 h 2.281 v -9.558 z" />
      </g>
      <g
         transform="matrix(0.35277777,0,0,0.34315929,59.605087,67.069495)"
         id="g238"
         style="display:inline">
        <path
           inkscape:connector-curvature="0"
           id="path240"
           style="fill:#ffffff;fill-opacity:1;fill-rule:nonzero;stroke:#ffffff;stroke-width:0.72714698;stroke-linecap:butt;stroke-linejoin:miter;stroke-miterlimit:4;stroke-dasharray:none;stroke-opacity:1"
           d="m 199.629,400.205 3,-10.088 h 1.562 l -3.75,11.71 h -1.625 l -3.921,-11.71 h 1.546 z" />
      </g>
      <g
         transform="matrix(0.35277777,0,0,0.34315929,59.605087,67.069495)"
         id="g242"
         style="display:inline">
        <path
           inkscape:connector-curvature="0"
           id="path244"
           style="fill:#ffffff;fill-opacity:1;fill-rule:nonzero;stroke:#ffffff;stroke-width:0.72714698;stroke-linecap:butt;stroke-linejoin:miter;stroke-miterlimit:4;stroke-dasharray:none;stroke-opacity:1"
           d="m 210.996,391.193 c -1,0 -1.766,0.35 -2.297,1.044 -0.523,0.687 -0.836,1.667 -0.937,2.94 h 6.031 v -0.594 c 0,-1.029 -0.258,-1.848 -0.766,-2.458 -0.5,-0.619 -1.179,-0.932 -2.031,-0.932 z m 0.203,9.493 c 1.219,0 2.328,-0.313 3.328,-0.947 l 0.469,1.204 c -0.543,0.334 -1.148,0.587 -1.812,0.755 -0.668,0.161 -1.305,0.241 -1.907,0.241 -1.593,0 -2.836,-0.482 -3.718,-1.445 -0.875,-0.964 -1.313,-2.482 -1.313,-4.562 0,-1.992 0.426,-3.486 1.281,-4.482 0.852,-1.004 2.004,-1.51 3.453,-1.51 1.313,0 2.344,0.43 3.094,1.285 0.75,0.86 1.125,2 1.125,3.422 0,0.333 -0.031,0.867 -0.094,1.606 h -7.343 c 0.008,0.707 0.082,1.329 0.218,1.863 0.133,0.538 0.305,0.964 0.516,1.285 0.207,0.322 0.461,0.587 0.766,0.787 0.3,0.193 0.601,0.33 0.906,0.402 0.312,0.064 0.656,0.096 1.031,0.096 z" />
      </g>
      <g
         transform="matrix(0.35277777,0,0,0.34315929,59.605087,67.069495)"
         id="g246"
         style="display:inline">
        <path
           inkscape:connector-curvature="0"
           id="path248"
           style="fill:#ffffff;fill-opacity:1;fill-rule:nonzero;stroke:#ffffff;stroke-width:0.72714698;stroke-linecap:butt;stroke-linejoin:miter;stroke-miterlimit:4;stroke-dasharray:none;stroke-opacity:1"
           d="m 218.137,399.434 h 1.906 v 2.393 h -1.906 z" />
      </g>
      <g
         transform="matrix(0.35277777,0,0,0.34315929,59.605087,67.069495)"
         id="g250"
         style="display:inline">
        <path
           inkscape:connector-curvature="0"
           id="path252"
           style="fill:#ffffff;fill-opacity:1;fill-rule:nonzero;stroke:#ffffff;stroke-width:0.72714698;stroke-linecap:butt;stroke-linejoin:miter;stroke-miterlimit:4;stroke-dasharray:none;stroke-opacity:1"
           d="m 224.977,392.061 v 9.766 h -1.532 v -11.71 h 1.25 l 0.11,0.771 c 0.781,-0.361 1.429,-0.61 1.953,-0.739 0.519,-0.136 1.082,-0.209 1.687,-0.209 1.196,0 2.082,0.334 2.657,0.996 0.582,0.655 0.875,1.663 0.875,3.02 v 7.871 h -1.532 v -7.935 c 0,-0.964 -0.152,-1.655 -0.453,-2.072 -0.304,-0.418 -0.851,-0.627 -1.64,-0.627 -1.2,0 -2.325,0.289 -3.375,0.868 z" />
      </g>
      <g
         transform="matrix(0.35277777,0,0,0.34315929,59.605087,67.069495)"
         id="g254"
         style="display:inline">
        <path
           inkscape:connector-curvature="0"
           id="path256"
           style="fill:#ffffff;fill-opacity:1;fill-rule:nonzero;stroke:#ffffff;stroke-width:0.72714698;stroke-linecap:butt;stroke-linejoin:miter;stroke-miterlimit:4;stroke-dasharray:none;stroke-opacity:1"
           d="m 239.512,391.193 c -1,0 -1.766,0.35 -2.297,1.044 -0.524,0.687 -0.836,1.667 -0.938,2.94 h 6.032 v -0.594 c 0,-1.029 -0.258,-1.848 -0.766,-2.458 -0.5,-0.619 -1.18,-0.932 -2.031,-0.932 z m 0.203,9.493 c 1.219,0 2.328,-0.313 3.328,-0.947 l 0.469,1.204 c -0.543,0.334 -1.149,0.587 -1.813,0.755 -0.668,0.161 -1.304,0.241 -1.906,0.241 -1.594,0 -2.836,-0.482 -3.719,-1.445 -0.875,-0.964 -1.312,-2.482 -1.312,-4.562 0,-1.992 0.426,-3.486 1.281,-4.482 0.852,-1.004 2.004,-1.51 3.453,-1.51 1.313,0 2.344,0.43 3.094,1.285 0.75,0.86 1.125,2 1.125,3.422 0,0.333 -0.031,0.867 -0.094,1.606 h -7.344 c 0.008,0.707 0.082,1.329 0.219,1.863 0.133,0.538 0.305,0.964 0.516,1.285 0.207,0.322 0.461,0.587 0.765,0.787 0.301,0.193 0.602,0.33 0.907,0.402 0.312,0.064 0.656,0.096 1.031,0.096 z" />
      </g>
      <g
         transform="matrix(0.35277777,0,0,0.34315929,59.605087,67.069495)"
         id="g258"
         style="display:inline">
        <path
           inkscape:connector-curvature="0"
           id="path260"
           style="fill:#ffffff;fill-opacity:1;fill-rule:nonzero;stroke:#ffffff;stroke-width:0.72714698;stroke-linecap:butt;stroke-linejoin:miter;stroke-miterlimit:4;stroke-dasharray:none;stroke-opacity:1"
           d="m 250.547,401.939 c -0.637,-0.012 -1.156,-0.112 -1.563,-0.305 -0.406,-0.193 -0.726,-0.49 -0.953,-0.899 -0.23,-0.406 -0.39,-0.884 -0.484,-1.43 -0.086,-0.554 -0.125,-1.253 -0.125,-2.088 v -6.024 h -1.813 v -1.076 h 1.86 l 0.297,-3.341 h 1.172 v 3.341 h 3.656 v 1.076 h -3.656 v 6.04 c 0,0.763 0.039,1.381 0.124,1.863 0.083,0.474 0.219,0.819 0.407,1.044 0.195,0.225 0.398,0.378 0.609,0.45 0.219,0.064 0.508,0.096 0.875,0.096 0.813,0 1.406,-0.024 1.781,-0.08 l 0.063,1.221 c -0.637,0.072 -1.387,0.112 -2.25,0.112 z" />
      </g>
    </g>
  </g>
</svg>
